<mxfile host="app.diagrams.net" modified="2022-11-13T16:39:52.348Z" agent="5.0 (Windows NT 10.0; Win64; x64) AppleWebKit/537.36 (KHTML, like Gecko) Chrome/107.0.0.0 Safari/537.36" etag="UCI7R52b4ZoYnn1Ywnjw" version="20.5.3" type="github">
  <diagram id="3U_DlGR_8lspaYgAbYeU" name="Sida-1">
    <mxGraphModel dx="2249" dy="697" grid="1" gridSize="10" guides="1" tooltips="1" connect="1" arrows="1" fold="1" page="1" pageScale="1" pageWidth="827" pageHeight="1169" math="0" shadow="0">
      <root>
        <mxCell id="0" />
        <mxCell id="1" parent="0" />
        <mxCell id="NdOaNpzIV36MuJ5LiK6B-1" value="&lt;h1&gt;Labb 3 classdiagram - MainViewModel&lt;/h1&gt;" style="text;html=1;strokeColor=none;fillColor=none;spacing=5;spacingTop=-20;whiteSpace=wrap;overflow=hidden;rounded=0;" vertex="1" parent="1">
          <mxGeometry x="-800" y="30" width="650" height="50" as="geometry" />
        </mxCell>
        <mxCell id="NdOaNpzIV36MuJ5LiK6B-3" value="&lt;h1&gt;ViewModels&lt;/h1&gt;" style="text;html=1;strokeColor=none;fillColor=none;spacing=5;spacingTop=-20;whiteSpace=wrap;overflow=hidden;rounded=0;align=center;" vertex="1" parent="1">
          <mxGeometry x="-518" y="110" width="210" height="40" as="geometry" />
        </mxCell>
        <mxCell id="NdOaNpzIV36MuJ5LiK6B-5" value="MainViewModel" style="swimlane;fontStyle=2;align=center;verticalAlign=top;childLayout=stackLayout;horizontal=1;startSize=26;horizontalStack=0;resizeParent=1;resizeLast=0;collapsible=1;marginBottom=0;rounded=0;shadow=0;strokeWidth=1;" vertex="1" parent="1">
          <mxGeometry x="-520" y="190" width="206" height="60" as="geometry">
            <mxRectangle x="230" y="140" width="160" height="26" as="alternateBounds" />
          </mxGeometry>
        </mxCell>
        <mxCell id="NdOaNpzIV36MuJ5LiK6B-6" value="-CurrentViewModelChanged() : void" style="text;align=left;verticalAlign=top;spacingLeft=4;spacingRight=4;overflow=hidden;rotatable=0;points=[[0,0.5],[1,0.5]];portConstraint=eastwest;" vertex="1" parent="NdOaNpzIV36MuJ5LiK6B-5">
          <mxGeometry y="26" width="206" height="26" as="geometry" />
        </mxCell>
        <mxCell id="NdOaNpzIV36MuJ5LiK6B-28" value="&lt;h1&gt;Managers&lt;/h1&gt;" style="text;html=1;strokeColor=none;fillColor=none;spacing=5;spacingTop=-20;whiteSpace=wrap;overflow=hidden;rounded=0;align=center;" vertex="1" parent="1">
          <mxGeometry x="-308" y="360" width="210" height="40" as="geometry" />
        </mxCell>
        <mxCell id="NdOaNpzIV36MuJ5LiK6B-29" value="NavigationManager" style="swimlane;fontStyle=2;align=center;verticalAlign=top;childLayout=stackLayout;horizontal=1;startSize=26;horizontalStack=0;resizeParent=1;resizeLast=0;collapsible=1;marginBottom=0;rounded=0;shadow=0;strokeWidth=1;" vertex="1" parent="1">
          <mxGeometry x="-306" y="420" width="206" height="60" as="geometry">
            <mxRectangle x="230" y="140" width="160" height="26" as="alternateBounds" />
          </mxGeometry>
        </mxCell>
        <mxCell id="NdOaNpzIV36MuJ5LiK6B-30" value="-CurrentViewModelChanged() : void" style="text;align=left;verticalAlign=top;spacingLeft=4;spacingRight=4;overflow=hidden;rotatable=0;points=[[0,0.5],[1,0.5]];portConstraint=eastwest;" vertex="1" parent="NdOaNpzIV36MuJ5LiK6B-29">
          <mxGeometry y="26" width="206" height="26" as="geometry" />
        </mxCell>
      </root>
    </mxGraphModel>
  </diagram>
</mxfile>
